<?xml version="1.0" encoding="UTF-8"?>
<svg height="16px" viewBox="0 0 16 16" width="16px" xmlns="http://www.w3.org/2000/svg">
    <g fill="#241f31">
        <path d="m 2 3 h 1 v 13 h -1 z m 0 0"/>
        <path d="m 5 9 l 4.519531 -4.570312 l 3 3 l -4.519531 4.570312 h -3 z m 0 0" fill-rule="evenodd"/>
        <path d="m 12.628906 1.660156 c -0.203125 0 -0.402344 0.078125 -0.554687 0.230469 l -1.769531 1.769531 l 3.050781 3.054688 l 1.769531 -1.773438 c 0.308594 -0.304687 0.308594 -0.800781 0 -1.105468 l -1.941406 -1.941407 c -0.148438 -0.148437 -0.347656 -0.230469 -0.554688 -0.230469 z m 0 0" fill-rule="evenodd"/>
        <path d="m 4 13 c 0 0.828125 -0.671875 1.5 -1.5 1.5 s -1.5 -0.671875 -1.5 -1.5 s 0.671875 -1.5 1.5 -1.5 s 1.5 0.671875 1.5 1.5 z m 0 0"/>
        <path d="m 4 7.5 c 0 0.828125 -0.671875 1.5 -1.5 1.5 s -1.5 -0.671875 -1.5 -1.5 s 0.671875 -1.5 1.5 -1.5 s 1.5 0.671875 1.5 1.5 z m 0 0"/>
        <path d="m 4 2 c 0 0.828125 -0.671875 1.5 -1.5 1.5 s -1.5 -0.671875 -1.5 -1.5 s 0.671875 -1.5 1.5 -1.5 s 1.5 0.671875 1.5 1.5 z m 0 0"/>
    </g>
</svg>
