<?xml version="1.0" encoding="UTF-8" standalone="no"?>
<svg
   height="128px"
   viewBox="0 0 128 128"
   width="128px"
   version="1.1"
   id="svg68"
   sodipodi:docname="re.sonny.Commit.svg"
   inkscape:export-filename="/home/tobias/Projects/Commit/data/icons/re.sonny.Commit.png"
   inkscape:export-xdpi="384"
   inkscape:export-ydpi="384"
   inkscape:version="1.1-rc (52f87abb86, 2021-05-02)"
   xmlns:inkscape="http://www.inkscape.org/namespaces/inkscape"
   xmlns:sodipodi="http://sodipodi.sourceforge.net/DTD/sodipodi-0.dtd"
   xmlns="http://www.w3.org/2000/svg"
   xmlns:svg="http://www.w3.org/2000/svg">
  <defs
     id="defs72" />
  <sodipodi:namedview
     id="namedview70"
     pagecolor="#ffffff"
     bordercolor="#666666"
     borderopacity="1.0"
     objecttolerance="10.0"
     gridtolerance="10.0"
     guidetolerance="10.0"
     inkscape:pageshadow="2"
     inkscape:pageopacity="0.0"
     inkscape:pagecheckerboard="0"
     showgrid="false"
     inkscape:zoom="5.53125"
     inkscape:cx="57.220339"
     inkscape:cy="64"
     inkscape:window-width="1920"
     inkscape:window-height="1011"
     inkscape:window-x="0"
     inkscape:window-y="0"
     inkscape:window-maximized="1"
     inkscape:current-layer="svg68" />
  <linearGradient
     id="a"
     gradientUnits="userSpaceOnUse"
     x1="7.999999"
     x2="119.999999"
     y1="90.000003"
     y2="90.000003">
    <stop
       offset="0"
       stop-color="#c0bfbc"
       id="stop2" />
    <stop
       offset="0.428679"
       stop-color="#c0bfbc"
       id="stop4" />
    <stop
       offset="0.499994"
       stop-color="#f6f5f4"
       id="stop6" />
    <stop
       offset="0.571308"
       stop-color="#c0bfbc"
       id="stop8" />
    <stop
       offset="1"
       stop-color="#c0bfbc"
       id="stop10" />
  </linearGradient>
  <linearGradient
     id="b"
     gradientTransform="matrix(0.848528 -0.848528 0.824958 0.824958 -131.560251 -17.124779)"
     gradientUnits="userSpaceOnUse"
     x1="115"
     x2="115"
     y1="183"
     y2="174">
    <stop
       offset="0"
       stop-color="#e01b24"
       id="stop13" />
    <stop
       offset="1"
       stop-color="#f66151"
       id="stop15" />
  </linearGradient>
  <linearGradient
     id="c"
     gradientTransform="matrix(0.0485366 -0.23068 0.23068 -0.0485366 90.78829 104.483236)"
     gradientUnits="userSpaceOnUse"
     x1="128.817169"
     x2="158.518021"
     y1="-97.698288"
     y2="-127.399147">
    <stop
       offset="0"
       stop-color="#d0bb8e"
       id="stop18" />
    <stop
       offset="1"
       stop-color="#ffffff"
       id="stop20" />
  </linearGradient>
  <linearGradient
     id="d"
     gradientTransform="matrix(0.707107 -0.707107 0.824958 0.824958 -116.286741 -32.39829)"
     gradientUnits="userSpaceOnUse"
     x1="110"
     x2="110"
     y1="182"
     y2="174">
    <stop
       offset="0"
       stop-color="#9a9996"
       id="stop23" />
    <stop
       offset="0.533151"
       stop-color="#deddda"
       id="stop25" />
    <stop
       offset="1"
       stop-color="#f6f5f4"
       id="stop27" />
  </linearGradient>
  <path
     d="m 69.65625 117.738281 l 48.082031 -48.082031 c 3.125 -3.125 3.125 -8.1875 0 -11.3125 l -48.082031 -48.082031 c -3.125 -3.125 -8.1875 -3.125 -11.3125 0 l -48.082031 48.082031 c -3.125 3.125 -3.125 8.1875 0 11.3125 l 48.082031 48.082031 c 3.125 3.125 8.1875 3.125 11.3125 0 z m 0 0"
     fill="#f6f5f4"
     id="path30" />
  <path
     d="m 56 38 h 4 v 78 h -4 z m 0 0"
     fill="#9a9996"
     id="path32" />
  <path
     d="m 58 88 h 10 c 5.523438 0 10 -4.476562 10 -10 v -36"
     fill="none"
     stroke="#9a9996"
     stroke-linecap="round"
     stroke-width="4"
     id="path34" />
  <path
     d="m 66 32 c 0 4.417969 -3.582031 8 -8 8 s -8 -3.582031 -8 -8 s 3.582031 -8 8 -8 s 8 3.582031 8 8 z m 0 0"
     fill="#a51d2d"
     id="path36" />
  <path
     d="m 84 46 c 0 3.3125 -2.6875 6 -6 6 s -6 -2.6875 -6 -6 s 2.6875 -6 6 -6 s 6 2.6875 6 6 z m 0 0"
     fill="#26a269"
     id="path38" />
  <path
     d="m 64 61 c 0 3.3125 -2.6875 6 -6 6 s -6 -2.6875 -6 -6 s 2.6875 -6 6 -6 s 6 2.6875 6 6 z m 0 0"
     fill="#1c71d8"
     id="path40" />
  <path
     d="m 64 88 c 0 3.3125 -2.6875 6 -6 6 s -6 -2.6875 -6 -6 s 2.6875 -6 6 -6 s 6 2.6875 6 6 z m 0 0"
     fill="#813d9c"
     id="path42" />
  <path
     d="m 8.496094 61 c -1.171875 2.886719 -0.585938 6.308594 1.761718 8.65625 l 48.085938 48.082031 c 3.132812 3.136719 8.179688 3.136719 11.3125 0 l 48.082031 -48.082031 c 2.351563 -2.347656 2.9375 -5.769531 1.769531 -8.65625 c -0.394531 0.964844 -0.980468 1.871094 -1.769531 2.65625 l -48.082031 48.082031 c -3.132812 3.136719 -8.179688 3.136719 -11.3125 0 l -48.085938 -48.082031 c -0.785156 -0.785156 -1.371093 -1.691406 -1.761718 -2.65625 z m 0 0"
     fill="url(#a)"
     id="path44" />
  <path
     d="m 64 86 c 0 3.3125 -2.6875 6 -6 6 s -6 -2.6875 -6 -6 s 2.6875 -6 6 -6 s 6 2.6875 6 6 z m 0 0"
     fill="#c061cb"
     id="path46" />
  <path
     d="m 66 30 c 0 4.417969 -3.582031 8 -8 8 s -8 -3.582031 -8 -8 s 3.582031 -8 8 -8 s 8 3.582031 8 8 z m 0 0"
     fill="#ed333b"
     id="path48" />
  <path
     d="m 84 44 c 0 3.3125 -2.6875 6 -6 6 s -6 -2.6875 -6 -6 s 2.6875 -6 6 -6 s 6 2.6875 6 6 z m 0 0"
     fill="#57e389"
     id="path50" />
  <path
     d="m 64 59 c 0 3.3125 -2.6875 6 -6 6 s -6 -2.6875 -6 -6 s 2.6875 -6 6 -6 s 6 2.6875 6 6 z m 0 0"
     fill="#62a0ea"
     id="path52" />
  <path
     d="m 104.800781 30.296875 l 2.828125 -2.828125 c 1.5625 -1.5625 4.097656 -1.5625 5.660156 0 l 4.242188 4.242188 c 1.5625 1.5625 1.5625 4.097656 0 5.660156 l -2.828125 2.828125 c -1.5625 1.5625 -4.097656 1.5625 -5.660156 0 l -4.242188 -4.242188 c -1.5625 -1.5625 -1.5625 -4.097656 0 -5.660156 z m 0 0"
     fill="url(#b)"
     id="path54" />
  <path
     d="m 69.050781 80.898438 l -4.949219 -4.949219 l 1.101563 -6.050781 l 9.898437 9.898437 z m 0 0"
     fill="url(#c)"
     id="path56" />
  <path
     d="m 63 82 l 1.101562 -6.050781 l 4.949219 4.949219 z m 0 0"
     fill="#424048"
     id="path58" />
  <path
     d="m 73.972656 78.664062 l -6.222656 -6.222656 l 36.746094 -36.746094 l 6.222656 6.222657 z m 0 0"
     fill="#5e5c64"
     id="path60" />
  <path
     d="m 68.03125 72.726562 l -2.828125 -2.832031 l 36.769531 -36.769531 l 2.808594 2.851562 z m 0 0"
     fill="#77767b"
     id="path62" />
  <path
     d="m 72.273438 76.96875 l 2.828124 2.828125 l 36.769532 -36.769531 l -2.847656 -2.808594 z m 0 0"
     fill="#3d3846"
     id="path64" />
  <path
     d="m 101.972656 33.125 l 2.828125 -2.828125 l 9.902344 9.902344 l -2.832031 2.828125 z m 0 0"
     fill="url(#d)"
     id="path66" />
</svg>
